<?xml version="1.0" encoding="UTF-8" standalone="no"?>
<!-- Created with Inkscape (http://www.inkscape.org/) -->

<svg
   width="652mm"
   height="159.54375mm"
   viewBox="0 0 652 159.54375"
   version="1.1"
   id="svg5"
   inkscape:version="1.1.1 (3bf5ae0d25, 2021-09-20)"
   sodipodi:docname="capstone-logo-words-black.svg"
   xmlns:inkscape="http://www.inkscape.org/namespaces/inkscape"
   xmlns:sodipodi="http://sodipodi.sourceforge.net/DTD/sodipodi-0.dtd"
   xmlns="http://www.w3.org/2000/svg"
   xmlns:svg="http://www.w3.org/2000/svg">
  <sodipodi:namedview
     id="namedview7"
     pagecolor="#ffffff"
     bordercolor="#666666"
     borderopacity="1.0"
     inkscape:pageshadow="2"
     inkscape:pageopacity="0.0"
     inkscape:pagecheckerboard="0"
     inkscape:document-units="mm"
     showgrid="false"
     inkscape:lockguides="true"
     inkscape:snap-global="false"
     fit-margin-top="0"
     fit-margin-left="0"
     fit-margin-right="0"
     fit-margin-bottom="0"
     inkscape:zoom="0.35355339"
     inkscape:cx="1166.7262"
     inkscape:cy="264.45794"
     inkscape:window-width="1920"
     inkscape:window-height="1017"
     inkscape:window-x="3832"
     inkscape:window-y="415"
     inkscape:window-maximized="1"
     inkscape:current-layer="layer1"
     width="404.02292mm" />
  <defs
     id="defs2">
    <rect
       x="950.3515"
       y="164.04877"
       width="1965.757"
       height="398.80823"
       id="rect14158" />
  </defs>
  <g
     inkscape:label="Layer 1"
     inkscape:groupmode="layer"
     id="layer1"
     transform="translate(92.084404,-74.343552)">
    <path
       style="fill:#000000;fill-opacity:1;stroke:none;stroke-width:0.345298"
       d="M 76.187733,74.966505 C 66.775584,90.34197 50.808283,97.463063 33.370695,99.728227 26.96885,100.5597 20.472401,99.934022 14.033957,101.01412 c -13.80677654,2.31626 -26.899121,7.94462 -38.328158,15.98249 -10.147985,7.13663 -18.933768,16.66583 -25.202666,27.37493 -2.273438,3.88324 -4.320721,7.91287 -6.010952,12.08546 -0.650549,1.60599 -1.119459,4.56277 -2.703353,5.51511 -1.509987,0.90848 -4.430177,0.35497 -6.137686,0.35497 h -15.538443 v 57.31959 h 29.005093 v -32.11278 c 0,-5.11837 -0.713036,-10.83238 0.112236,-15.88374 1.086311,-6.64874 4.41603,-13.46665 7.591047,-19.33673 22.892621,-42.32396 78.597947,-55.901445 118.330775,-29.11904 7.40424,4.9906 14.147242,11.26778 19.518007,18.41478 6.473663,8.61485 12.570953,19.28424 14.506003,30.04099 0.92334,5.13044 0.16056,11.01812 0.16056,16.22903 v 31.76749 h 28.6598 V 162.32708 H 115.8971 c -1.14708,-7.76715 -6.48817,-16.074 -10.82305,-22.44442 -1.76896,-2.5994 -3.58247,-5.67257 -6.096588,-7.59656 v -0.34531 c 15.221118,-8.67252 13.795718,-31.45256 10.479468,-45.924724 -0.77864,-3.396708 -2.10045,-6.631568 -2.8829,-10.013665 h -0.34529 c -3.53827,12.376201 -13.518101,19.182382 -24.170911,24.861509 0,-9.392471 -0.840463,-17.415836 -5.179481,-25.897405 H 76.187746 M -0.81388378,144.86843 c -7.07344492,1.10461 -13.04123822,5.5341 -18.30082422,10.11 -14.381345,12.51259 -23.247585,33.17354 -23.481688,52.23748 -0.09905,8.0762 -1.034865,20.44756 6.90735,25.56282 6.434641,4.14392 16.427936,-2.07456 22.099114,-5.23854 15.1126907,-8.4308 28.826233,-21.36328 47.305935,-19.57498 14.205591,1.37463 26.704718,13.0081 38.673453,19.76974 5.060015,2.85872 12.902783,7.55582 18.991438,6.23539 8.065491,-1.74927 9.094466,-12.19249 9.727066,-18.81255 1.77966,-18.62714 -5.468505,-40.536 -17.767695,-54.5572 -7.513004,-8.5648 -20.825318,-19.77768 -33.049923,-14.5464 -7.861418,3.3639 -12.574051,11.72634 -22.099115,11.06233 C 16.87198,156.32785 11.29816,142.97688 -0.81388378,144.86843 m -3.79827732,15.83091 c 23.0770051,-2.83387 33.6137951,29.47988 14.1572391,41.469 -2.737872,1.68712 -5.7809858,2.80589 -8.97775817,3.22129 -23.08839383,3.0003 -35.23255483,-28.67291 -15.19314783,-41.25699 3.057626,-1.91985 6.4391302,-2.99408 10.0136669,-3.4333 m 65.2614641,0 c 23.122926,-2.83973 33.82512,29.54238 14.157252,41.52218 -2.719235,1.65639 -5.817592,2.7572 -8.977771,3.16811 -23.33321,3.03206 -34.988077,-28.98334 -14.847841,-41.39994 2.935381,-1.80971 6.252663,-2.87081 9.66836,-3.29035 m -66.987962,18.54738 c -2.866669,0 -7.020603,-0.7538 -9.666637,0.49515 -2.816255,1.32906 -3.026187,5.13184 -0.340466,6.72505 2.613917,1.55073 7.0717223,0.72167 10.007103,0.72167 0,2.78242 -0.8173238,7.12972 0.4551026,9.66318 1.3318199,2.6512 5.21401293,2.98062 6.74783096,0.33529 1.53761574,-2.65121 0.73894144,-7.04479 0.73894144,-9.99847 2.9226041,0 7.3721224,0.81559 9.981197,-0.73894 2.550387,-1.51932 2.20059,-5.31967 -0.318018,-6.62006 -2.6121812,-1.34806 -6.7937564,-0.58287 -9.663179,-0.58287 0,-2.94367 0.7769189,-7.32724 -0.74722861,-9.98121 -1.50412778,-2.61875 -5.43155439,-2.28553 -6.73954379,0.31802 -1.2724264,2.53276 -0.4551026,6.88111 -0.4551026,9.66319 M 61.6852,167.38709 c -5.390458,1.66469 -2.993052,10.19701 2.417086,8.52611 5.390471,-1.66469 2.993052,-10.19702 -2.417086,-8.52611 m -153.31264,2.88186 v 41.43584 h 9.323066 v -41.43584 h -9.323066 m 232.38606,0 v 41.43584 h 9.32306 v -41.43584 h -9.32306 m -90.122984,8.47639 c -5.721945,1.24135 -3.916712,9.87312 1.726498,8.65111 5.42499,-1.1747 3.762375,-9.84204 -1.726498,-8.65111 m 22.789716,-0.004 c -5.645285,1.29764 -3.532749,10.0482 2.071453,8.59933 5.363874,-1.38638 3.299677,-9.83412 -2.071453,-8.59933 m -10.704256,11.42249 c -5.882507,0.3377 -5.201928,9.2357 0.690602,8.72708 5.46469,-0.47168 4.787569,-9.04165 -0.690602,-8.72708 z"
       id="path7756" />
    <text
       xml:space="preserve"
       transform="matrix(0.54617801,0,0,0.54617801,-354.89461,16.522183)"
       id="text14156"
       style="font-style:normal;font-weight:normal;font-size:192px;line-height:1.25;font-family:sans-serif;white-space:pre;shape-inside:url(#rect14158);fill:#000000;fill-opacity:1;stroke:none"><tspan
         x="950.35156"
         y="339.21625"
         id="tspan64602"><tspan
           style="font-family:'Trebuchet MS';-inkscape-font-specification:'Trebuchet MS'"
           id="tspan64600">Indie-Go</tspan></tspan></text>
  </g>
</svg>
